<svg width="56.000000pt" height="48.000000pt" viewBox="0 0 56.000000 48.000000" xmlns="http://www.w3.org/2000/svg">
  <g transform="translate(0.000000,48.000000) scale(0.100000,-0.100000)" fill="#fefefe" stroke="none">
    <path d="M0 240 c0 -240 0 -240 280 -240 280 0 280 0 280 240 0 240 0 240
-280 240 -280 0 -280 0 -280 -240z m218 213 c-15 -2 -42 -2 -60 0 -18 2 -6 4
27 4 33 0 48 -2 33 -4z m-108 -13 c-8 -5 -19 -10 -25 -10 -5 0 -3 5 5 10 8 5
20 10 25 10 6 0 3 -5 -5 -10z m-5 -124 c0 -57 -9 -65 -20 -16 -5 23 7 70 18
70 1 0 2 -24 2 -54z m-78 -18 c-2 -13 -4 -5 -4 17 -1 22 1 32 4 23 2 -10 2
-28 0 -40z m180 -45 c-2 -16 -4 -3 -4 27 0 30 2 43 4 28 2 -16 2 -40 0 -55z
m257 48 c16 -6 27 -14 24 -16 -3 -3 -21 2 -41 10 -20 8 -61 15 -92 15 -55 0
-55 0 -55 -145 0 -90 -4 -145 -10 -145 -6 0 -10 33 -10 80 0 69 -2 80 -17 80
-13 0 -14 3 -5 12 7 7 12 38 12 71 0 59 0 59 83 55 45 -3 95 -10 111 -17z
m-409 -61 c20 -25 20 -25 -2 -6 -13 11 -23 24 -23 29 0 6 1 8 3 6 1 -2 11 -15
22 -29z m338 13 c-31 -4 -32 -5 -36 -61 -3 -57 -3 -57 -5 6 -2 62 -2 62 36 60
36 -1 36 -1 5 -5z m-288 -63 c3 -5 4 -10 1 -10 -3 0 -8 5 -11 10 -3 6 -4 10
-1 10 3 0 8 -4 11 -10z m366 -57 c-8 -14 -10 -9 -10 27 1 42 1 43 10 18 7 -18
7 -33 0 -45z m-285 29 c-27 -2 -52 0 -57 5 -4 4 18 6 49 3 57 -5 57 -5 8 -8z
m242 -79 c-10 -2 -26 -2 -35 0 -10 3 -2 5 17 5 19 0 27 -2 18 -5z m60 -28
c-21 -19 -48 -35 -60 -35 -18 0 -13 5 19 21 23 11 47 27 54 35 6 8 14 14 18
14 3 0 -11 -16 -31 -35z" />
  </g>
  <g transform="translate(0.000000,48.000000) scale(0.100000,-0.100000)" fill="#000000" stroke="none">
    <path d="M90 453 c-52 -27 -82 -85 -77 -152 4 -51 7 -58 56 -103 50 -46 55
-48 111 -48 32 0 62 5 65 10 16 27 25 3 25 -70 0 -73 2 -80 20 -80 19 0 20 7
20 145 0 145 0 145 48 144 105 -1 161 -46 162 -130 0 -71 -74 -139 -153 -139
-15 0 -27 -4 -27 -10 0 -6 27 -10 61 -10 58 0 64 2 100 39 39 38 39 39 39 119
0 127 -44 162 -204 162 -76 0 -76 0 -76 -58 0 -71 -17 -92 -76 -92 -66 0 -144
72 -144 133 0 83 61 131 160 125 44 -2 55 0 55 12 0 24 -120 26 -165 3z" />
    <path d="M98 379 c-49 -55 -35 -110 34 -145 73 -37 90 -28 86 49 -4 76 -22 82
-26 10 -3 -60 -3 -59 -43 -36 -76 45 -34 142 57 131 16 -2 31 2 34 7 3 6 -19
11 -55 13 -56 3 -62 1 -87 -29z" />
    <path d="M340 200 c0 -56 3 -70 15 -70 12 0 15 13 15 55 0 52 1 55 24 55 30 0
56 -34 56 -73 0 -40 -17 -67 -43 -67 -33 0 -67 -11 -67 -21 0 -5 25 -9 55 -9
30 0 55 4 55 8 0 5 9 20 21 33 21 24 22 84 2 98 -5 3 -16 18 -26 34 -15 23
-24 27 -62 27 -45 0 -45 0 -45 -70z" />
  </g>
</svg>